<?xml version="1.0" encoding="UTF-8" standalone="no"?>
<svg width="1200" height="600" xmlns="http://www.w3.org/2000/svg">
  <defs>
    <linearGradient id="grad1" x1="0%" y1="0%" x2="100%" y2="0%">
      <stop offset="0%" style="stop-color:#FF4C00;stop-opacity:1" />
      <stop offset="100%" style="stop-color:#0A3A68;stop-opacity:1" />
    </linearGradient>
  </defs>
  <rect width="100%" height="100%" fill="url(#grad1)"/>
  
  <!-- Dice patterns -->
  <g fill="white" opacity="0.2">
    <!-- Dice 1 -->
    <rect x="100" y="100" width="120" height="120" rx="20"/>
    <circle cx="160" cy="160" r="20" fill="#FFF"/>
    
    <!-- Dice 2 -->
    <rect x="900" y="400" width="120" height="120" rx="20"/>
    <circle cx="940" cy="440" r="20" fill="#FFF"/>
    <circle cx="980" cy="480" r="20" fill="#FFF"/>
    
    <!-- Dice 3 -->
    <rect x="300" y="400" width="120" height="120" rx="20"/>
    <circle cx="340" cy="440" r="20" fill="#FFF"/>
    <circle cx="360" cy="460" r="20" fill="#FFF"/>
    <circle cx="380" cy="480" r="20" fill="#FFF"/>
    
    <!-- Dice 6 -->
    <rect x="700" y="150" width="120" height="120" rx="20"/>
    <circle cx="740" cy="180" r="15" fill="#FFF"/>
    <circle cx="740" cy="220" r="15" fill="#FFF"/>
    <circle cx="740" cy="260" r="15" fill="#FFF"/>
    <circle cx="780" cy="180" r="15" fill="#FFF"/>
    <circle cx="780" cy="220" r="15" fill="#FFF"/>
    <circle cx="780" cy="260" r="15" fill="#FFF"/>
  </g>
</svg>